<svg width="38" height="26" viewBox="0 0 38 26" fill="none" xmlns="http://www.w3.org/2000/svg">
<path fill-rule="evenodd" clip-rule="evenodd" d="M35.9916 2.29335C36.5701 2.84166 36.9892 3.53646 37.2043 4.30391V4.30233C37.7717 7.17817 38.037 10.1054 37.9959 13.0364C38.0147 15.955 37.749 18.8685 37.2027 21.7356C36.9885 22.5031 36.5699 23.198 35.9916 23.7462C35.3968 24.3114 34.6678 24.7157 33.8734 24.9209C28.9318 25.473 23.961 25.7215 18.9889 25.665C18.9889 25.665 7.1361 25.665 4.12342 24.8829C3.3192 24.6692 2.5878 24.2655 2.00046 23.7066C1.41312 23.1478 0.990427 22.456 0.77354 21.6977C0.240028 18.8259 -0.0180204 15.9145 0.000977075 13C-0.0175581 10.0828 0.241125 7.17054 0.77354 4.30233C0.995177 3.54085 1.41945 2.84586 2.00521 2.28227C2.60135 1.7128 3.329 1.29949 4.12342 1.0791C9.05869 0.527022 14.0232 0.278532 18.9889 0.335029C18.9889 0.335029 30.9003 0.335029 33.8734 1.11867C34.6678 1.3239 35.3968 1.72818 35.9916 2.29335ZM18.3424 6.7766V8.75212H10.9299V11.896H16.9914V13.836H10.9299V18.7599H8.77661V6.7766H18.3424ZM23.4331 6.7766V16.7843H30.2234V18.7599H21.2798V6.7766H23.4331Z" fill="#092C4C"/>
</svg>
