<svg width="197" height="38" viewBox="0 0 197 38" fill="none" xmlns="http://www.w3.org/2000/svg">
<path d="M37.2043 10.3039C36.9892 9.53646 36.5701 8.84166 35.9916 8.29335C35.3968 7.72818 34.6678 7.3239 33.8734 7.11867C30.9003 6.33503 18.9889 6.33503 18.9889 6.33503C14.0232 6.27853 9.05869 6.52702 4.12342 7.0791C3.329 7.29949 2.60135 7.7128 2.00521 8.28227C1.41945 8.84586 0.995177 9.54085 0.77354 10.3023C0.241125 13.1705 -0.0175581 16.0828 0.000977075 19C-0.0180204 21.9145 0.240028 24.8259 0.77354 27.6977C0.990427 28.456 1.41312 29.1478 2.00046 29.7066C2.5878 30.2655 3.3192 30.6692 4.12342 30.8829C7.1361 31.665 18.9889 31.665 18.9889 31.665C23.961 31.7215 28.9318 31.473 33.8734 30.9209C34.6678 30.7157 35.3968 30.3114 35.9916 29.7462C36.5699 29.198 36.9885 28.5031 37.2027 27.7356C37.749 24.8685 38.0147 21.955 37.9959 19.0364C38.037 16.1054 37.7717 13.1782 37.2043 10.3023V10.3039ZM15.2021 24.4206V13.581L25.1124 19.0016L15.2021 24.4206Z" fill="#092C4C"/>
<path d="M63.5144 8.2V10.6H51.3544V17.448H61.3064V19.848H51.3544V29H48.7944V8.2H63.5144ZM69.5761 6.6V9.704H66.2481V6.6H69.5761ZM66.6321 13H69.1921V29H66.6321V13ZM73.5644 13H76.1244V29H73.5644V13ZM81.6284 12.68C82.4817 12.68 83.2497 12.808 83.9324 13.064C84.615 13.32 85.191 13.6933 85.6604 14.184C86.1297 14.6747 86.4924 15.272 86.7484 15.976C87.0044 16.6587 87.1324 17.4373 87.1324 18.312V29H84.5724V18.952C84.5724 17.7147 84.2844 16.7867 83.7084 16.168C83.1324 15.5493 82.2684 15.24 81.1164 15.24C80.2417 15.24 79.431 15.464 78.6844 15.912C77.9377 16.36 77.319 16.9787 76.8284 17.768C76.359 18.536 76.071 19.432 75.9644 20.456L75.9324 18.6C76.039 17.704 76.2524 16.8933 76.5724 16.168C76.9137 15.4427 77.3297 14.824 77.8204 14.312C78.3324 13.7787 78.9084 13.3733 79.5484 13.096C80.2097 12.8187 80.903 12.68 81.6284 12.68ZM97.3311 29.32C96.0511 29.32 94.8778 28.968 93.8111 28.264C92.7658 27.5387 91.9338 26.5573 91.3151 25.32C90.6965 24.0613 90.3871 22.632 90.3871 21.032C90.3871 19.432 90.6858 18.0027 91.2831 16.744C91.8805 15.4853 92.7018 14.4933 93.7471 13.768C94.7925 13.0427 95.9871 12.68 97.3311 12.68C98.5258 12.68 99.4965 12.904 100.243 13.352C101.011 13.7787 101.598 14.376 102.003 15.144C102.408 15.912 102.686 16.7973 102.835 17.8C103.006 18.8027 103.091 19.88 103.091 21.032C103.091 21.8427 103.006 22.728 102.835 23.688C102.664 24.6267 102.366 25.5333 101.939 26.408C101.534 27.2613 100.958 27.9653 100.211 28.52C99.4645 29.0533 98.5045 29.32 97.3311 29.32ZM97.9711 26.888C99.0591 26.888 99.9551 26.6213 100.659 26.088C101.384 25.5547 101.918 24.8507 102.259 23.976C102.6 23.08 102.771 22.0987 102.771 21.032C102.771 19.8587 102.59 18.8347 102.227 17.96C101.886 17.064 101.352 16.3707 100.627 15.88C99.9231 15.368 99.0378 15.112 97.9711 15.112C96.3711 15.112 95.1338 15.6773 94.2591 16.808C93.3845 17.9173 92.9471 19.3253 92.9471 21.032C92.9471 22.1627 93.1605 23.176 93.5871 24.072C94.0351 24.9467 94.6325 25.64 95.3791 26.152C96.1471 26.6427 97.0111 26.888 97.9711 26.888ZM102.771 6.6H105.331V29H102.995C102.952 28.5307 102.899 27.976 102.835 27.336C102.792 26.696 102.771 26.184 102.771 25.8V6.6ZM110.291 6.6H112.851V29H110.291V6.6ZM128.674 23.848H131.074C130.903 24.8933 130.519 25.832 129.922 26.664C129.346 27.4747 128.578 28.1253 127.618 28.616C126.679 29.0853 125.591 29.32 124.354 29.32C122.86 29.32 121.516 28.968 120.322 28.264C119.127 27.5387 118.178 26.5573 117.474 25.32C116.791 24.0613 116.45 22.632 116.45 21.032C116.45 19.432 116.78 18.0027 117.442 16.744C118.124 15.4853 119.052 14.4933 120.226 13.768C121.399 13.0427 122.722 12.68 124.194 12.68C125.751 12.68 127.063 13.032 128.13 13.736C129.218 14.4187 130.018 15.432 130.53 16.776C131.063 18.0987 131.276 19.7307 131.17 21.672H119.01C119.116 22.7173 119.404 23.6347 119.874 24.424C120.343 25.2133 120.962 25.832 121.73 26.28C122.498 26.7067 123.372 26.92 124.354 26.92C125.442 26.92 126.359 26.6427 127.106 26.088C127.874 25.512 128.396 24.7653 128.674 23.848ZM124.29 15.08C122.967 15.08 121.858 15.464 120.962 16.232C120.066 17 119.468 18.0453 119.17 19.368H128.546C128.46 17.96 128.002 16.8933 127.17 16.168C126.359 15.4427 125.399 15.08 124.29 15.08ZM134.471 13H137.031V29H134.471V13ZM142.535 12.68C143.388 12.68 144.156 12.808 144.839 13.064C145.521 13.32 146.097 13.6933 146.567 14.184C147.036 14.6747 147.399 15.272 147.655 15.976C147.911 16.6587 148.039 17.4373 148.039 18.312V29H145.479V18.952C145.479 17.7147 145.191 16.7867 144.615 16.168C144.039 15.5493 143.175 15.24 142.023 15.24C141.148 15.24 140.337 15.464 139.591 15.912C138.844 16.36 138.225 16.9787 137.735 17.768C137.265 18.536 136.977 19.432 136.871 20.456L136.839 18.6C136.945 17.704 137.159 16.8933 137.479 16.168C137.82 15.4427 138.236 14.824 138.727 14.312C139.239 13.7787 139.815 13.3733 140.455 13.096C141.116 12.8187 141.809 12.68 142.535 12.68ZM157.917 26.472C156.787 26.472 155.709 26.2053 154.685 25.672C153.683 25.1173 152.861 24.328 152.221 23.304C151.603 22.28 151.293 21.0533 151.293 19.624C151.293 18.1947 151.603 16.968 152.221 15.944C152.84 14.8987 153.651 14.0987 154.653 13.544C155.656 12.968 156.744 12.68 157.917 12.68C158.28 12.68 158.621 12.712 158.941 12.776C159.283 12.8187 159.603 12.8933 159.901 13H166.397V15.752C165.48 15.752 164.563 15.5813 163.645 15.24C162.749 14.8987 161.981 14.5467 161.341 14.184L161.213 14.056C161.96 14.4613 162.568 14.9413 163.037 15.496C163.528 16.0507 163.891 16.68 164.125 17.384C164.381 18.0667 164.509 18.8133 164.509 19.624C164.509 21.0533 164.2 22.28 163.581 23.304C162.984 24.328 162.184 25.1173 161.181 25.672C160.179 26.2053 159.091 26.472 157.917 26.472ZM162.621 35.4V34.696C162.621 33.5653 162.323 32.744 161.725 32.232C161.149 31.72 160.275 31.464 159.101 31.464H155.901C155.197 31.464 154.579 31.4 154.045 31.272C153.533 31.1653 153.107 30.9947 152.765 30.76C152.424 30.5253 152.168 30.2373 151.997 29.896C151.827 29.5547 151.741 29.1707 151.741 28.744C151.741 27.9333 151.987 27.3253 152.477 26.92C152.968 26.4933 153.576 26.2267 154.301 26.12C155.027 26.0133 155.72 26.0133 156.381 26.12L157.917 26.472C156.765 26.536 155.869 26.6533 155.229 26.824C154.611 26.9947 154.301 27.3573 154.301 27.912C154.301 28.232 154.419 28.4987 154.653 28.712C154.909 28.904 155.283 29 155.773 29H159.101C160.211 29 161.224 29.1493 162.141 29.448C163.059 29.768 163.795 30.2907 164.349 31.016C164.904 31.7627 165.181 32.776 165.181 34.056V35.4H162.621ZM157.917 24.072C158.621 24.072 159.272 23.9013 159.869 23.56C160.488 23.2187 160.989 22.7173 161.373 22.056C161.757 21.3947 161.949 20.584 161.949 19.624C161.949 18.664 161.757 17.8533 161.373 17.192C161.011 16.5093 160.52 15.9973 159.901 15.656C159.283 15.2933 158.621 15.112 157.917 15.112C157.213 15.112 156.552 15.2933 155.933 15.656C155.315 15.9973 154.813 16.4987 154.429 17.16C154.045 17.8213 153.853 18.6427 153.853 19.624C153.853 20.584 154.045 21.3947 154.429 22.056C154.813 22.7173 155.315 23.2187 155.933 23.56C156.552 23.9013 157.213 24.072 157.917 24.072ZM168.288 13H177.696V15.4H168.288V13ZM171.712 8.84H174.272V29H171.712V8.84ZM192.113 29V18.952C192.113 18.12 191.985 17.4373 191.729 16.904C191.473 16.3493 191.089 15.9333 190.577 15.656C190.065 15.3787 189.425 15.24 188.657 15.24C187.782 15.24 186.971 15.464 186.225 15.912C185.478 16.36 184.859 16.9787 184.369 17.768C183.899 18.536 183.611 19.432 183.505 20.456L183.473 18.6C183.579 17.704 183.793 16.8933 184.113 16.168C184.454 15.4427 184.87 14.824 185.361 14.312C185.873 13.7787 186.449 13.3733 187.089 13.096C187.75 12.8187 188.443 12.68 189.169 12.68C190.022 12.68 190.79 12.808 191.473 13.064C192.155 13.32 192.731 13.6933 193.201 14.184C193.67 14.6747 194.033 15.272 194.289 15.976C194.545 16.6587 194.673 17.4373 194.673 18.312V29H192.113ZM181.105 29V6.6H183.665V29H181.105Z" fill="#FFA85B"/>
</svg>
