<svg width="195" height="38" viewBox="0 0 195 38" fill="none" xmlns="http://www.w3.org/2000/svg">
<path fill-rule="evenodd" clip-rule="evenodd" d="M35.9916 8.29335C36.5701 8.84166 36.9892 9.53646 37.2043 10.3039V10.3023C37.7717 13.1782 38.037 16.1054 37.9959 19.0364C38.0147 21.955 37.749 24.8685 37.2027 27.7356C36.9885 28.5031 36.5699 29.198 35.9916 29.7462C35.3968 30.3114 34.6678 30.7157 33.8734 30.9209C28.9318 31.473 23.961 31.7215 18.9889 31.665C18.9889 31.665 7.1361 31.665 4.12342 30.8829C3.3192 30.6692 2.5878 30.2655 2.00046 29.7066C1.41312 29.1478 0.990427 28.456 0.77354 27.6977C0.240028 24.8259 -0.0180204 21.9145 0.000977075 19C-0.0175581 16.0828 0.241125 13.1705 0.77354 10.3023C0.995177 9.54085 1.41945 8.84586 2.00521 8.28227C2.60135 7.7128 3.329 7.29949 4.12342 7.0791C9.05869 6.52702 14.0232 6.27853 18.9889 6.33503C18.9889 6.33503 30.9003 6.33503 33.8734 7.11867C34.6678 7.3239 35.3968 7.72818 35.9916 8.29335ZM18.3424 12.7766V14.7521H10.9299V17.896H16.9914V19.836H10.9299V24.7599H8.77661V12.7766H18.3424ZM23.4331 12.7766V22.7843H30.2234V24.7599H21.2798V12.7766H23.4331Z" fill="#092C4C"/>
<path d="M61.5144 8.2V10.6H49.3544V17.448H59.3064V19.848H49.3544V29H46.7944V8.2H61.5144ZM67.5761 6.6V9.704H64.2481V6.6H67.5761ZM64.6321 13H67.1921V29H64.6321V13ZM71.5644 13H74.1244V29H71.5644V13ZM79.6284 12.68C80.4817 12.68 81.2497 12.808 81.9324 13.064C82.615 13.32 83.191 13.6933 83.6604 14.184C84.1297 14.6747 84.4924 15.272 84.7484 15.976C85.0044 16.6587 85.1324 17.4373 85.1324 18.312V29H82.5724V18.952C82.5724 17.7147 82.2844 16.7867 81.7084 16.168C81.1324 15.5493 80.2684 15.24 79.1164 15.24C78.2417 15.24 77.431 15.464 76.6844 15.912C75.9377 16.36 75.319 16.9787 74.8284 17.768C74.359 18.536 74.071 19.432 73.9644 20.456L73.9324 18.6C74.039 17.704 74.2524 16.8933 74.5724 16.168C74.9137 15.4427 75.3297 14.824 75.8204 14.312C76.3324 13.7787 76.9084 13.3733 77.5484 13.096C78.2097 12.8187 78.903 12.68 79.6284 12.68ZM95.3311 29.32C94.0511 29.32 92.8778 28.968 91.8111 28.264C90.7658 27.5387 89.9338 26.5573 89.3151 25.32C88.6965 24.0613 88.3871 22.632 88.3871 21.032C88.3871 19.432 88.6858 18.0027 89.2831 16.744C89.8805 15.4853 90.7018 14.4933 91.7471 13.768C92.7925 13.0427 93.9871 12.68 95.3311 12.68C96.5258 12.68 97.4965 12.904 98.2431 13.352C99.0111 13.7787 99.5978 14.376 100.003 15.144C100.408 15.912 100.686 16.7973 100.835 17.8C101.006 18.8027 101.091 19.88 101.091 21.032C101.091 21.8427 101.006 22.728 100.835 23.688C100.664 24.6267 100.366 25.5333 99.9391 26.408C99.5338 27.2613 98.9578 27.9653 98.2111 28.52C97.4645 29.0533 96.5045 29.32 95.3311 29.32ZM95.9711 26.888C97.0591 26.888 97.9551 26.6213 98.6591 26.088C99.3845 25.5547 99.9178 24.8507 100.259 23.976C100.6 23.08 100.771 22.0987 100.771 21.032C100.771 19.8587 100.59 18.8347 100.227 17.96C99.8858 17.064 99.3525 16.3707 98.6271 15.88C97.9231 15.368 97.0378 15.112 95.9711 15.112C94.3711 15.112 93.1338 15.6773 92.2591 16.808C91.3845 17.9173 90.9471 19.3253 90.9471 21.032C90.9471 22.1627 91.1605 23.176 91.5871 24.072C92.0351 24.9467 92.6325 25.64 93.3791 26.152C94.1471 26.6427 95.0111 26.888 95.9711 26.888ZM100.771 6.6H103.331V29H100.995C100.952 28.5307 100.899 27.976 100.835 27.336C100.792 26.696 100.771 26.184 100.771 25.8V6.6ZM108.291 6.6H110.851V29H108.291V6.6ZM126.674 23.848H129.074C128.903 24.8933 128.519 25.832 127.922 26.664C127.346 27.4747 126.578 28.1253 125.618 28.616C124.679 29.0853 123.591 29.32 122.354 29.32C120.86 29.32 119.516 28.968 118.322 28.264C117.127 27.5387 116.178 26.5573 115.474 25.32C114.791 24.0613 114.45 22.632 114.45 21.032C114.45 19.432 114.78 18.0027 115.442 16.744C116.124 15.4853 117.052 14.4933 118.226 13.768C119.399 13.0427 120.722 12.68 122.194 12.68C123.751 12.68 125.063 13.032 126.13 13.736C127.218 14.4187 128.018 15.432 128.53 16.776C129.063 18.0987 129.276 19.7307 129.17 21.672H117.01C117.116 22.7173 117.404 23.6347 117.874 24.424C118.343 25.2133 118.962 25.832 119.73 26.28C120.498 26.7067 121.372 26.92 122.354 26.92C123.442 26.92 124.359 26.6427 125.106 26.088C125.874 25.512 126.396 24.7653 126.674 23.848ZM122.29 15.08C120.967 15.08 119.858 15.464 118.962 16.232C118.066 17 117.468 18.0453 117.17 19.368H126.546C126.46 17.96 126.002 16.8933 125.17 16.168C124.359 15.4427 123.399 15.08 122.29 15.08ZM132.471 13H135.031V29H132.471V13ZM140.535 12.68C141.388 12.68 142.156 12.808 142.839 13.064C143.521 13.32 144.097 13.6933 144.567 14.184C145.036 14.6747 145.399 15.272 145.655 15.976C145.911 16.6587 146.039 17.4373 146.039 18.312V29H143.479V18.952C143.479 17.7147 143.191 16.7867 142.615 16.168C142.039 15.5493 141.175 15.24 140.023 15.24C139.148 15.24 138.337 15.464 137.591 15.912C136.844 16.36 136.225 16.9787 135.735 17.768C135.265 18.536 134.977 19.432 134.871 20.456L134.839 18.6C134.945 17.704 135.159 16.8933 135.479 16.168C135.82 15.4427 136.236 14.824 136.727 14.312C137.239 13.7787 137.815 13.3733 138.455 13.096C139.116 12.8187 139.809 12.68 140.535 12.68ZM155.917 26.472C154.787 26.472 153.709 26.2053 152.685 25.672C151.683 25.1173 150.861 24.328 150.221 23.304C149.603 22.28 149.293 21.0533 149.293 19.624C149.293 18.1947 149.603 16.968 150.221 15.944C150.84 14.8987 151.651 14.0987 152.653 13.544C153.656 12.968 154.744 12.68 155.917 12.68C156.28 12.68 156.621 12.712 156.941 12.776C157.283 12.8187 157.603 12.8933 157.901 13H164.397V15.752C163.48 15.752 162.563 15.5813 161.645 15.24C160.749 14.8987 159.981 14.5467 159.341 14.184L159.213 14.056C159.96 14.4613 160.568 14.9413 161.037 15.496C161.528 16.0507 161.891 16.68 162.125 17.384C162.381 18.0667 162.509 18.8133 162.509 19.624C162.509 21.0533 162.2 22.28 161.581 23.304C160.984 24.328 160.184 25.1173 159.181 25.672C158.179 26.2053 157.091 26.472 155.917 26.472ZM160.621 35.4V34.696C160.621 33.5653 160.323 32.744 159.725 32.232C159.149 31.72 158.275 31.464 157.101 31.464H153.901C153.197 31.464 152.579 31.4 152.045 31.272C151.533 31.1653 151.107 30.9947 150.765 30.76C150.424 30.5253 150.168 30.2373 149.997 29.896C149.827 29.5547 149.741 29.1707 149.741 28.744C149.741 27.9333 149.987 27.3253 150.477 26.92C150.968 26.4933 151.576 26.2267 152.301 26.12C153.027 26.0133 153.72 26.0133 154.381 26.12L155.917 26.472C154.765 26.536 153.869 26.6533 153.229 26.824C152.611 26.9947 152.301 27.3573 152.301 27.912C152.301 28.232 152.419 28.4987 152.653 28.712C152.909 28.904 153.283 29 153.773 29H157.101C158.211 29 159.224 29.1493 160.141 29.448C161.059 29.768 161.795 30.2907 162.349 31.016C162.904 31.7627 163.181 32.776 163.181 34.056V35.4H160.621ZM155.917 24.072C156.621 24.072 157.272 23.9013 157.869 23.56C158.488 23.2187 158.989 22.7173 159.373 22.056C159.757 21.3947 159.949 20.584 159.949 19.624C159.949 18.664 159.757 17.8533 159.373 17.192C159.011 16.5093 158.52 15.9973 157.901 15.656C157.283 15.2933 156.621 15.112 155.917 15.112C155.213 15.112 154.552 15.2933 153.933 15.656C153.315 15.9973 152.813 16.4987 152.429 17.16C152.045 17.8213 151.853 18.6427 151.853 19.624C151.853 20.584 152.045 21.3947 152.429 22.056C152.813 22.7173 153.315 23.2187 153.933 23.56C154.552 23.9013 155.213 24.072 155.917 24.072ZM166.288 13H175.696V15.4H166.288V13ZM169.712 8.84H172.272V29H169.712V8.84ZM190.113 29V18.952C190.113 18.12 189.985 17.4373 189.729 16.904C189.473 16.3493 189.089 15.9333 188.577 15.656C188.065 15.3787 187.425 15.24 186.657 15.24C185.782 15.24 184.971 15.464 184.225 15.912C183.478 16.36 182.859 16.9787 182.369 17.768C181.899 18.536 181.611 19.432 181.505 20.456L181.473 18.6C181.579 17.704 181.793 16.8933 182.113 16.168C182.454 15.4427 182.87 14.824 183.361 14.312C183.873 13.7787 184.449 13.3733 185.089 13.096C185.75 12.8187 186.443 12.68 187.169 12.68C188.022 12.68 188.79 12.808 189.473 13.064C190.155 13.32 190.731 13.6933 191.201 14.184C191.67 14.6747 192.033 15.272 192.289 15.976C192.545 16.6587 192.673 17.4373 192.673 18.312V29H190.113ZM179.105 29V6.6H181.665V29H179.105Z" fill="#FFA85B"/>
</svg>
