<svg width="31" height="34" viewBox="0 0 31 34" fill="none" xmlns="http://www.w3.org/2000/svg">
<path fill-rule="evenodd" clip-rule="evenodd" d="M27.1667 33.6667H3.83333C1.995 33.6667 0.5 32.1717 0.5 30.3333V5.33334C0.5 3.495 1.995 2 3.83333 2H7.16667C7.16667 1.55797 7.34226 1.13405 7.65482 0.821491C7.96738 0.50893 8.39131 0.333336 8.83333 0.333336H22.1667C22.6087 0.333336 23.0326 0.50893 23.3452 0.821491C23.6577 1.13405 23.8333 1.55797 23.8333 2H27.1667C29.005 2 30.5 3.495 30.5 5.33334V30.3333C30.5 32.1717 29.005 33.6667 27.1667 33.6667ZM13.8333 20.3217L10.8449 17.3333L8.48828 19.69L13.8333 25.035L22.5116 16.3567L20.1549 14L13.8333 20.3217ZM23.5 5H7.5V8H23.5V5Z" fill="#092C4C"/>
</svg>
