<svg width="30" height="36" viewBox="0 0 30 36" fill="none" xmlns="http://www.w3.org/2000/svg">
<path fill-rule="evenodd" clip-rule="evenodd" d="M10.0769 2C10.0769 1.67358 10.2065 1.36053 10.4374 1.12971C10.6682 0.8989 10.9812 0.76923 11.3076 0.76923H18.6923C19.0187 0.76923 19.3317 0.8989 19.5625 1.12971C19.7934 1.36053 19.923 1.67358 19.923 2C19.923 2.32642 19.7934 2.63947 19.5625 2.87029C19.3317 3.1011 19.0187 3.23077 18.6923 3.23077H11.3076C10.9812 3.23077 10.6682 3.1011 10.4374 2.87029C10.2065 2.63947 10.0769 2.32642 10.0769 2ZM29.7692 20.4615C29.7692 23.3826 28.903 26.2381 27.2801 28.6669C25.6573 31.0957 23.3506 32.9887 20.6519 34.1065C17.9532 35.2244 14.9836 35.5169 12.1186 34.947C9.25367 34.3771 6.62204 32.9705 4.55653 30.905C2.49101 28.8394 1.08438 26.2078 0.514506 23.3429C-0.0553679 20.4779 0.237112 17.5083 1.35496 14.8096C2.47281 12.1109 4.36582 9.80424 6.79461 8.18137C9.22339 6.55851 12.0789 5.69231 15 5.69231C18.9145 5.70044 22.6664 7.25909 25.4344 10.0271C28.2024 12.7951 29.7611 16.547 29.7692 20.4615ZM24.6618 17.8163C24.8821 18.6383 24.9942 19.4794 24.9997 20.3191C24.9999 20.3409 25 20.3628 25 20.3846C25 20.4028 24.9999 20.421 24.9998 20.4391C24.9925 21.7588 24.7221 23.0728 24.1941 24.3017C23.3143 26.3496 21.7706 28.0416 19.8118 29.1052C18.3864 29.8791 16.8017 30.2874 15.1979 30.307C15.1576 30.3075 15.1173 30.3077 15.0769 30.3077C15.0345 30.3077 14.9921 30.3074 14.9498 30.3069C14.4317 30.3003 13.9123 30.253 13.3964 30.1644C11.1997 29.7869 9.19403 28.6809 7.70259 27.0245C6.21116 25.368 5.32082 23.2578 5.17505 21.0336C5.16266 20.8446 5.15571 20.6557 5.15413 20.4671C5.15391 20.4397 5.1538 20.4121 5.1538 20.3846C5.1538 20.3516 5.15396 20.3185 5.15428 20.2856C5.17389 18.3183 5.77828 16.3948 6.89901 14.7641C7.20209 14.3231 7.5387 13.9097 7.90473 13.5269C6.22177 15.2866 5.17992 17.6645 5.15428 20.2856C5.15368 20.346 5.15363 20.4066 5.15413 20.4671C5.19811 25.8672 9.55545 30.2392 14.9498 30.3069C15.0325 30.308 15.1152 30.308 15.1979 30.307C20.6044 30.2424 24.9707 25.8541 24.9998 20.4391C25 20.3991 25 20.3591 24.9997 20.3191C24.9646 14.8783 20.5507 10.4768 15.1052 10.4616C15.0843 10.4615 15.0634 10.4615 15.0426 10.4616C12.3858 10.4706 9.97501 11.5236 8.19895 13.2319C9.30548 12.1679 10.6508 11.3685 12.1343 10.9079C13.0827 10.6134 14.063 10.465 15.0426 10.4616C15.054 10.4616 15.0654 10.4615 15.0769 10.4615L15.1052 10.4616C16.3032 10.465 17.499 10.6853 18.633 11.1206L15.0769 20.3846L24.6618 17.8163Z" fill="#FFA85B"/>
</svg>
