<svg width="47" height="46" viewBox="0 0 47 46" fill="none" xmlns="http://www.w3.org/2000/svg">
<path fill-rule="evenodd" clip-rule="evenodd" d="M15.5769 7.23077C15.5769 6.90435 15.7065 6.5913 15.9374 6.36048C16.1682 6.12967 16.4812 6 16.8076 6H24.1923C24.5187 6 24.8317 6.12967 25.0625 6.36048C25.2934 6.5913 25.423 6.90435 25.423 7.23077C25.423 7.55719 25.2934 7.87024 25.0625 8.10105C24.8317 8.33187 24.5187 8.46154 24.1923 8.46154H16.8076C16.4812 8.46154 16.1682 8.33187 15.9374 8.10105C15.7065 7.87024 15.5769 7.55719 15.5769 7.23077ZM35.2692 25.6923C35.2692 28.6134 34.403 31.4689 32.7801 33.8977C31.1573 36.3264 28.8506 38.2195 26.1519 39.3373C23.4532 40.4551 20.4836 40.7476 17.6186 40.1778C14.7537 39.6079 12.122 38.2012 10.0565 36.1357C7.99101 34.0702 6.58438 31.4386 6.01451 28.5736C5.44463 25.7087 5.73711 22.7391 6.85496 20.0404C7.97281 17.3416 9.86582 15.035 12.2946 13.4121C14.7234 11.7893 17.5789 10.9231 20.5 10.9231C24.4145 10.9312 28.1664 12.4899 30.9344 15.2579C33.7024 18.0259 35.2611 21.7778 35.2692 25.6923ZM30.1618 23.0471C30.3821 23.869 30.4942 24.7101 30.4997 25.5499C30.4999 25.5717 30.5 25.5935 30.5 25.6154C30.5 25.6336 30.4999 25.6517 30.4998 25.6699C30.4925 26.9896 30.2221 28.3036 29.6941 29.5325C28.8143 31.5804 27.2706 33.2724 25.3118 34.336C23.8864 35.1099 22.3017 35.5182 20.6979 35.5377C20.6576 35.5382 20.6173 35.5385 20.5769 35.5385C20.5345 35.5385 20.4921 35.5382 20.4498 35.5377C19.9317 35.531 19.4123 35.4838 18.8964 35.3951C16.6997 35.0177 14.694 33.9116 13.2026 32.2552C11.7112 30.5988 10.8208 28.4885 10.675 26.2644C10.6627 26.0754 10.6557 25.8865 10.6541 25.6979C10.6539 25.6704 10.6538 25.6429 10.6538 25.6154C10.6538 25.5823 10.654 25.5493 10.6543 25.5163C10.6739 23.549 11.2783 21.6256 12.399 19.9949C12.7021 19.5539 13.0387 19.1405 13.4047 18.7577C11.7218 20.5173 10.6799 22.8952 10.6543 25.5163C10.6537 25.5768 10.6536 25.6373 10.6541 25.6979C10.6981 31.0979 15.0554 35.47 20.4498 35.5377C20.5325 35.5387 20.6152 35.5387 20.6979 35.5377C26.1044 35.4731 30.4707 31.0848 30.4998 25.6699C30.5 25.6299 30.5 25.5899 30.4997 25.5499C30.4646 20.1091 26.0507 15.7075 20.6052 15.6923C20.5843 15.6923 20.5634 15.6923 20.5426 15.6924C17.8858 15.7014 15.475 16.7544 13.6989 18.4626C14.8055 17.3986 16.1508 16.5993 17.6343 16.1387C18.5827 15.8442 19.563 15.6957 20.5426 15.6924C20.554 15.6923 20.5654 15.6923 20.5769 15.6923L20.6052 15.6923C21.8032 15.6958 22.999 15.9161 24.133 16.3514L20.5769 25.6154L30.1618 23.0471Z" fill="#EB5757"/>
<path d="M41.5 26.3333V13H37.5V26.3333H41.5Z" fill="#EB5757"/>
<path d="M37.5 33V29.6667H41.5V33H37.5Z" fill="#EB5757"/>
</svg>
