<svg width="31" height="37" viewBox="0 0 31 37" fill="none" xmlns="http://www.w3.org/2000/svg">
<path d="M8.66671 0C8.22468 0 7.80076 0.175595 7.4882 0.488155C7.17564 0.800716 7.00004 1.22464 7.00004 1.66667C7.00004 2.10869 7.17564 2.53262 7.4882 2.84518C7.80076 3.15774 8.22468 3.33333 8.66671 3.33333H22C22.4421 3.33333 22.866 3.15774 23.1786 2.84518C23.4911 2.53262 23.6667 2.10869 23.6667 1.66667C23.6667 1.22464 23.4911 0.800716 23.1786 0.488155C22.866 0.175595 22.4421 0 22 0L8.66671 0ZM0.333374 21.6667C0.333374 17.6884 1.91373 13.8731 4.72677 11.0601C7.53982 8.24702 11.3551 6.66667 15.3334 6.66667C19.3116 6.66667 23.1269 8.24702 25.94 11.0601C28.753 13.8731 30.3334 17.6884 30.3334 21.6667C30.3334 25.6449 28.753 29.4602 25.94 32.2733C23.1269 35.0863 19.3116 36.6667 15.3334 36.6667C11.3551 36.6667 7.53982 35.0863 4.72677 32.2733C1.91373 29.4602 0.333374 25.6449 0.333374 21.6667ZM13.6667 25C13.6667 25.442 13.8423 25.866 14.1549 26.1785C14.4674 26.4911 14.8913 26.6667 15.3334 26.6667C15.7754 26.6667 16.1993 26.4911 16.5119 26.1785C16.8244 25.866 17 25.442 17 25V15C17 14.558 16.8244 14.1341 16.5119 13.8215C16.1993 13.5089 15.7754 13.3333 15.3334 13.3333C14.8913 13.3333 14.4674 13.5089 14.1549 13.8215C13.8423 14.1341 13.6667 14.558 13.6667 15V25Z" fill="#FFA85B"/>
</svg>
