<svg width="31" height="37" viewBox="0 0 31 37" fill="none" xmlns="http://www.w3.org/2000/svg">
<path d="M9.16671 0C8.72468 0 8.30076 0.175595 7.9882 0.488155C7.67564 0.800716 7.50004 1.22464 7.50004 1.66667C7.50004 2.10869 7.67564 2.53262 7.9882 2.84518C8.30076 3.15774 8.72468 3.33333 9.16671 3.33333H22.5C22.9421 3.33333 23.366 3.15774 23.6786 2.84518C23.9911 2.53262 24.1667 2.10869 24.1667 1.66667C24.1667 1.22464 23.9911 0.800716 23.6786 0.488155C23.366 0.175595 22.9421 0 22.5 0L9.16671 0ZM0.833374 21.6667C0.833374 17.6884 2.41373 13.8731 5.22677 11.0601C8.03982 8.24702 11.8551 6.66667 15.8334 6.66667C19.8116 6.66667 23.6269 8.24702 26.44 11.0601C29.253 13.8731 30.8334 17.6884 30.8334 21.6667C30.8334 25.6449 29.253 29.4602 26.44 32.2733C23.6269 35.0863 19.8116 36.6667 15.8334 36.6667C11.8551 36.6667 8.03982 35.0863 5.22677 32.2733C2.41373 29.4602 0.833374 25.6449 0.833374 21.6667ZM14.1667 25C14.1667 25.442 14.3423 25.866 14.6549 26.1785C14.9674 26.4911 15.3913 26.6667 15.8334 26.6667C16.2754 26.6667 16.6993 26.4911 17.0119 26.1785C17.3244 25.866 17.5 25.442 17.5 25V15C17.5 14.558 17.3244 14.1341 17.0119 13.8215C16.6993 13.5089 16.2754 13.3333 15.8334 13.3333C15.3913 13.3333 14.9674 13.5089 14.6549 13.8215C14.3423 14.1341 14.1667 14.558 14.1667 15V25Z" fill="#092C4C"/>
</svg>
